<?xml version="1.0" encoding="UTF-8"?>
<!DOCTYPE svg PUBLIC "-//W3C//DTD SVG 1.1//EN" "http://www.w3.org/Graphics/SVG/1.1/DTD/svg11.dtd">
<svg version="1.1" xmlns="http://www.w3.org/2000/svg" xmlns:xlink="http://www.w3.org/1999/xlink" x="0" y="0" width="550" height="582" viewBox="0, 0, 550, 582">
  <defs>
    <linearGradient id="Gradient_1" gradientUnits="userSpaceOnUse" x1="293.715" y1="207.012" x2="300.469" y2="192.54">
      <stop offset="0" stop-color="#655C4B"/>
      <stop offset="0.236" stop-color="#BDB7AC"/>
      <stop offset="0.371" stop-color="#F3F1E8"/>
      <stop offset="0.562" stop-color="#CFD0C1"/>
      <stop offset="0.989" stop-color="#F3F1E8"/>
      <stop offset="1" stop-color="#F3F1E8"/>
    </linearGradient>
    <linearGradient id="Gradient_2" gradientUnits="userSpaceOnUse" x1="434.14" y1="176.784" x2="536.174" y2="326.674">
      <stop offset="0" stop-color="#EB9074"/>
      <stop offset="0.5" stop-color="#DF513E"/>
      <stop offset="1" stop-color="#BA262E"/>
    </linearGradient>
    <linearGradient id="Gradient_3" gradientUnits="userSpaceOnUse" x1="333.629" y1="297.534" x2="399.29" y2="204.085">
      <stop offset="0" stop-color="#FFFFFE"/>
      <stop offset="0.003" stop-color="#FFFFFE"/>
      <stop offset="0.631" stop-color="#FFFCE5"/>
      <stop offset="1" stop-color="#F6DBAC"/>
    </linearGradient>
    <clipPath id="Clip_1">
      <path d="M540.905,331.937 C538.979,327.884 536.933,324.232 534.743,320.923 C532.814,314.652 530.866,310.57 530.866,310.57 L527.4,311.623 C512.311,295.677 491.28,290.074 459.718,282.773 C449.397,280.367 441.319,276.945 435.022,272.781 C458.046,274.445 487.421,278.773 500.866,284.195 C523.382,293.266 536.554,312.406 540.905,331.937 z"/>
    </clipPath>
    <linearGradient id="Gradient_4" gradientUnits="userSpaceOnUse" x1="333.629" y1="297.534" x2="399.29" y2="204.085">
      <stop offset="0" stop-color="#7896C1"/>
      <stop offset="0.003" stop-color="#7896C1"/>
      <stop offset="0.631" stop-color="#7A96BB"/>
      <stop offset="1" stop-color="#7C8EA8"/>
    </linearGradient>
    <linearGradient id="Gradient_5" gradientUnits="userSpaceOnUse" x1="333.629" y1="297.534" x2="399.29" y2="204.085">
      <stop offset="0" stop-color="#777776"/>
      <stop offset="0.003" stop-color="#777776"/>
      <stop offset="0.631" stop-color="#767773"/>
      <stop offset="1" stop-color="#747268"/>
    </linearGradient>
    <linearGradient id="Gradient_6" gradientUnits="userSpaceOnUse" x1="292.214" y1="212.691" x2="305.442" y2="193.865">
      <stop offset="0" stop-color="#655C4B"/>
      <stop offset="0.236" stop-color="#BDB7AC"/>
      <stop offset="0.371" stop-color="#F3F1E8"/>
      <stop offset="0.562" stop-color="#CFD0C1"/>
      <stop offset="0.989" stop-color="#F3F1E8"/>
      <stop offset="1" stop-color="#F3F1E8"/>
    </linearGradient>
    <linearGradient id="Gradient_7" gradientUnits="userSpaceOnUse" x1="333.629" y1="297.534" x2="399.29" y2="204.085">
      <stop offset="0" stop-color="#547EB2"/>
      <stop offset="0.003" stop-color="#547EB2"/>
      <stop offset="0.631" stop-color="#557EAF"/>
      <stop offset="1" stop-color="#577AA6"/>
    </linearGradient>
    <clipPath id="Clip_2">
      <path d="M534.743,320.923 C532.458,317.47 530.018,314.39 527.4,311.623 L530.866,310.57 C530.866,310.57 532.814,314.652 534.743,320.923 z"/>
    </clipPath>
    <linearGradient id="Gradient_8" gradientUnits="userSpaceOnUse" x1="333.629" y1="297.534" x2="399.29" y2="204.085">
      <stop offset="0" stop-color="#3C71AA"/>
      <stop offset="0.003" stop-color="#3C71AA"/>
      <stop offset="0.631" stop-color="#3D71A9"/>
      <stop offset="1" stop-color="#3E70A6"/>
    </linearGradient>
    <linearGradient id="Gradient_9" gradientUnits="userSpaceOnUse" x1="333.629" y1="297.534" x2="399.29" y2="204.085">
      <stop offset="0" stop-color="#4E74A1"/>
      <stop offset="0.003" stop-color="#4E74A1"/>
      <stop offset="0.631" stop-color="#4F74A0"/>
      <stop offset="1" stop-color="#50729D"/>
    </linearGradient>
    <linearGradient id="Gradient_10" gradientUnits="userSpaceOnUse" x1="333.629" y1="297.534" x2="399.29" y2="204.085">
      <stop offset="0" stop-color="#D4DDE8"/>
      <stop offset="0.003" stop-color="#D4DDE8"/>
      <stop offset="0.631" stop-color="#D4DDE7"/>
      <stop offset="1" stop-color="#D4DBE5"/>
    </linearGradient>
    <linearGradient id="Gradient_11" gradientUnits="userSpaceOnUse" x1="333.629" y1="297.534" x2="399.29" y2="204.085">
      <stop offset="0" stop-color="#CFD7E5"/>
      <stop offset="0.003" stop-color="#CFD7E5"/>
      <stop offset="0.631" stop-color="#CFD7E5"/>
      <stop offset="1" stop-color="#CFD7E4"/>
    </linearGradient>
    <linearGradient id="Gradient_12" gradientUnits="userSpaceOnUse" x1="333.629" y1="297.534" x2="399.29" y2="204.085">
      <stop offset="0" stop-color="#D0D8E3"/>
      <stop offset="0.003" stop-color="#D0D8E3"/>
      <stop offset="0.631" stop-color="#D0D8E3"/>
      <stop offset="1" stop-color="#D0D7E2"/>
    </linearGradient>
    <radialGradient id="Gradient_13" gradientUnits="userSpaceOnUse" cx="328.499" cy="220.969" r="11.695">
      <stop offset="0" stop-color="#A7AAAD"/>
      <stop offset="0.006" stop-color="#A7AAAD"/>
      <stop offset="0.354" stop-color="#A2A29C"/>
      <stop offset="0.674" stop-color="#7B8486"/>
      <stop offset="1" stop-color="#5F686A"/>
    </radialGradient>
    <linearGradient id="Gradient_14" gradientUnits="userSpaceOnUse" x1="216.658" y1="441.355" x2="33.924" y2="441.355">
      <stop offset="0" stop-color="#F4F4F4"/>
      <stop offset="0.5" stop-color="#DCDEE2"/>
      <stop offset="1" stop-color="#C7CBD2"/>
    </linearGradient>
    <linearGradient id="Gradient_15" gradientUnits="userSpaceOnUse" x1="216.658" y1="441.355" x2="33.924" y2="441.355">
      <stop offset="0" stop-color="#F8F7F8"/>
      <stop offset="0.5" stop-color="#EAEAED"/>
      <stop offset="1" stop-color="#DBDEE2"/>
    </linearGradient>
  </defs>
  <g id="Layer_1">
    <path d="M219.819,575.039 L153.093,540.32 L267.444,499.515 L345.741,558.328 L219.819,575.039" fill="#9C0D5C"/>
    <path d="M157.897,540.641 L220.163,573.031 L340.811,557.023 L267.108,501.688 L157.897,540.641 M219.819,576.961 C219.491,576.961 219.179,576.883 218.913,576.758 L152.194,542.023 C151.515,541.664 151.116,540.953 151.147,540.195 C151.21,539.422 151.71,538.742 152.444,538.508 L266.804,497.703 C267.397,497.484 268.085,497.563 268.6,497.961 L346.897,556.789 C347.53,557.258 347.804,558.07 347.608,558.812 C347.413,559.594 346.773,560.148 345.983,560.25 L220.054,576.945 L219.819,576.961" fill="#1A1919"/>
    <path d="M282.319,463.422 L293.882,363.133 C293.882,363.133 266.874,300.555 274.608,273.992 C282.319,247.398 305.991,179.898 283.554,162.547 C261.085,145.18 222.679,154.695 222.53,216.531 C222.265,309.148 258.085,374.695 258.085,374.695 L258.194,473.086 L282.319,463.422" fill="#D0C76E"/>
    <path d="M261.749,156.758 C243.796,156.758 224.561,172.476 224.452,216.539 C224.21,307.547 259.421,373.148 259.772,373.789 L259.999,374.195 L260.124,470.227 L280.523,462.07 L291.905,363.422 C289.241,357.133 265.202,299.445 272.741,273.453 C273.554,270.711 274.507,267.547 275.569,264.031 C284.616,234.266 301.476,178.82 282.366,164.055 C276.296,159.367 268.952,156.758 261.749,156.758 M256.28,475.922 L256.14,375.195 C253.038,369.227 220.358,304.625 220.593,216.531 C220.726,169.578 242.843,152.898 261.749,152.898 C269.811,152.898 277.991,155.773 284.726,161.008 C305.929,177.406 289.241,232.336 279.257,265.172 C278.194,268.641 277.241,271.812 276.46,274.539 C269.022,300.125 295.39,361.758 295.647,362.367 L295.866,362.852 L295.812,363.351 L284.085,464.805 L256.28,475.922" fill="#1A1919"/>
    <path d="M243.741,409.148 L293.882,409.148 C293.882,409.148 286.179,453.523 293.882,476.664 C301.608,499.805 311.241,507.523 311.241,530.68 L311.241,540.32 L153.093,540.32 C153.093,540.32 145.358,494.023 166.601,488.242 C177.121,485.366 189.71,486.838 201.443,488.31 C213.358,489.806 224.39,491.301 231.476,488.242 C258.194,476.695 243.741,409.148 243.741,409.148" fill="#C51473"/>
    <path d="M154.757,538.398 L309.319,538.398 L309.319,530.68 C309.319,516.133 305.437,507.945 300.522,497.57 C297.843,491.945 294.811,485.539 292.062,477.281 C285.179,456.68 290.155,420.539 291.616,411.078 L246.093,411.078 C248.436,423.422 257.53,479.102 232.241,490.008 C229.21,491.32 225.366,491.945 220.468,491.945 C214.944,491.945 208.718,491.156 202.14,490.336 C195.038,489.437 187.679,488.539 180.655,488.539 C175.413,488.539 170.976,489.031 167.101,490.094 C149.89,494.781 153.671,530.351 154.757,538.398 M311.241,542.242 L153.093,542.242 C152.14,542.242 151.351,541.57 151.194,540.633 C150.851,538.68 143.429,492.562 166.069,486.383 C170.288,485.219 175.054,484.664 180.655,484.664 C187.921,484.664 195.39,485.594 202.616,486.508 C209.069,487.336 215.179,488.094 220.468,488.094 C224.819,488.094 228.194,487.562 230.702,486.453 C255.671,475.68 241.991,410.219 241.851,409.57 C241.741,408.992 241.882,408.398 242.241,407.937 C242.608,407.492 243.155,407.227 243.741,407.227 L293.882,407.227 C294.444,407.227 294.991,407.484 295.358,407.914 C295.726,408.367 295.882,408.93 295.804,409.492 C295.726,409.914 288.233,453.648 295.726,476.062 C298.397,484.109 301.366,490.398 304.015,495.93 C308.937,506.305 313.171,515.242 313.171,530.68 L313.171,540.32 C313.171,541.375 312.304,542.242 311.241,542.242" fill="#1A1919"/>
    <path d="M286.185,205.12 L259.429,193.062 C258.507,192.641 257.78,191.867 257.421,190.922 C257.054,189.961 257.077,188.898 257.522,187.961 C257.87,187.172 258.467,186.545 259.198,186.153 L286.185,205.12 z" fill="url(#Gradient_1)"/>
    <path d="M261.022,185.695 C259.507,185.695 258.132,186.578 257.522,187.961 C257.077,188.898 257.054,189.961 257.421,190.922 C257.78,191.867 258.507,192.641 259.429,193.062 L326.921,223.477 C328.819,224.352 331.171,223.422 332.022,221.555 C332.46,220.617 332.476,219.578 332.116,218.609 C331.749,217.641 331.038,216.867 330.077,216.461 L262.616,186.039 C262.108,185.82 261.561,185.695 261.022,185.695 M328.507,227.703 C327.397,227.703 326.327,227.461 325.343,227.008 L257.858,196.586 C255.976,195.726 254.538,194.203 253.804,192.281 C253.077,190.375 253.147,188.258 253.983,186.383 C255.702,182.601 260.413,180.789 264.186,182.523 L331.687,212.945 C333.562,213.766 334.991,215.305 335.726,217.234 C336.46,219.164 336.374,221.266 335.546,223.148 C334.296,225.914 331.53,227.703 328.507,227.703" fill="#1A1919"/>
    <path d="M543.288,318.363 C536.595,299.827 522.692,285.225 504.585,277.914 C490.641,272.29 461.196,268.086 438.603,266.422 C423.215,256.105 417.323,240.027 421.054,218.375 C423.788,202.602 433.491,191.555 440.694,185.336 C435.343,198.867 444.062,211.101 444.179,211.227 C444.542,211.731 445.137,212.027 445.752,212.027 C445.918,212.027 446.085,212.006 446.249,211.961 L446.296,211.93 C447.054,211.711 447.585,211.062 447.663,210.281 C448.788,198.336 456.069,189.781 462.03,184.68 C457.577,195.57 461.085,207.055 461.28,207.68 C461.541,208.456 462.273,209.004 463.107,209.004 C463.146,209.004 463.186,209.002 463.225,209 C464.093,208.969 464.819,208.351 464.999,207.492 C467.03,198.25 479.585,187.992 488.241,181.914 C483.788,189.469 478.382,201.758 478.171,217.234 C477.851,240.711 490.468,249.383 513.444,265.117 C516.554,267.258 519.851,269.523 523.358,271.976 C542.487,285.446 544.107,306.6 543.288,318.363 z" fill="url(#Gradient_2)"/>
    <path d="M440.694,185.336 C433.491,191.555 423.788,202.602 421.054,218.375 C415.749,249.164 429.897,268.68 463.148,276.391 C504.101,285.875 527.163,292.477 543.007,321.398 C544.257,310.617 544.272,286.703 523.358,271.976 C519.851,269.523 516.554,267.258 513.444,265.117 C490.468,249.383 477.851,240.711 478.171,217.234 C478.382,201.758 483.788,189.469 488.241,181.914 C479.585,187.992 467.03,198.25 464.999,207.492 C464.819,208.351 464.093,208.969 463.225,209 C462.343,209.055 461.554,208.492 461.28,207.68 C461.085,207.055 457.577,195.57 462.03,184.68 C456.069,189.781 448.788,198.336 447.663,210.281 C447.585,211.062 447.054,211.711 446.296,211.93 L446.249,211.961 C445.476,212.172 444.64,211.867 444.179,211.227 C444.062,211.101 435.343,198.867 440.694,185.336 M544.491,329.312 C544.374,329.351 544.249,329.383 544.101,329.391 C543.311,329.461 542.546,329.039 542.194,328.289 C527.062,296.492 504.397,289.898 462.257,280.148 C417.944,269.867 413.327,240.531 417.257,217.711 C421.999,190.141 445.944,176.531 446.952,175.961 C447.804,175.484 448.804,175.711 449.405,176.445 C449.999,177.195 449.952,178.258 449.296,178.961 C440.343,188.609 442.39,198.641 444.765,204.32 C449.499,185.352 467.46,176.07 468.304,175.648 C469.179,175.18 470.194,175.476 470.741,176.234 C471.288,177.016 471.202,178.062 470.538,178.727 C463.905,185.359 463.311,194.352 463.858,200.281 C471.882,186.547 493.538,173.773 494.585,173.164 C495.421,172.672 496.452,172.867 497.054,173.586 C497.655,174.344 497.632,175.406 497.007,176.109 C496.851,176.258 482.351,192.82 482.007,217.281 C481.726,238.687 493.069,246.461 515.624,261.945 C518.749,264.101 522.069,266.351 525.577,268.82 C555.351,289.742 545.905,327.57 545.812,327.953 C545.647,328.617 545.124,329.117 544.491,329.312" fill="#1A1919"/>
    <path d="M490.139,390.354 C474.084,390.353 455.8,384.825 441.647,369.008 C423.554,348.742 414.374,327.68 407.679,312.289 C405.499,307.32 403.616,302.992 401.726,299.359 C401.112,297.186 396.078,280.799 379.406,266.356 L469.038,329.341 L426.054,342.391 C444.921,373.796 469.439,386.208 491.342,386.208 C502.343,386.208 512.689,383.074 521.319,377.641 C543.858,363.454 539.356,335.923 534.743,320.923 C536.933,324.232 538.979,327.884 540.905,331.937 C536.554,312.406 523.382,293.266 500.866,284.195 C487.421,278.773 458.046,274.445 435.022,272.781 C441.319,276.945 449.397,280.367 459.718,282.773 C491.28,290.074 512.311,295.677 527.4,311.623 L481.87,325.445 L224.53,144.602 C224.372,144.496 224.174,144.443 223.983,144.443 C223.919,144.443 223.856,144.449 223.796,144.461 C223.538,144.516 223.319,144.648 223.171,144.851 L218.21,151.898 C218.087,152.084 218.034,152.302 218.046,152.514 L198.647,138.883 C196.28,137.203 195.694,133.922 197.366,131.539 C198.363,130.119 200.042,129.348 201.72,129.348 C202.764,129.348 203.808,129.647 204.686,130.273 L379.897,253.398 L380.335,253.68 L380.499,253.695 C380.772,253.867 381.241,254.156 381.851,254.57 C387.679,258.25 405.366,269.461 420.616,269.5 C444.632,269.539 486.804,274.898 503.163,281.492 C521.452,288.883 535.233,304.187 540.944,323.508 C545.929,340.398 543.937,358.117 535.757,369.781 C530.108,377.805 520.726,384.133 509.351,387.594 C503.721,389.302 497.143,390.354 490.139,390.354 z" fill="url(#Gradient_3)"/>
    <path d="M401.726,299.359 C403.616,302.992 405.499,307.32 407.679,312.289 C414.374,327.68 423.554,348.742 441.647,369.008 C461.976,391.726 490.819,393.219 509.351,387.594 C520.726,384.133 530.108,377.805 535.757,369.781 C543.937,358.117 545.929,340.398 540.944,323.508 C535.233,304.187 521.452,288.883 503.163,281.492 C486.804,274.898 444.632,269.539 420.616,269.5 C405.366,269.461 387.679,258.25 381.851,254.57 C381.241,254.156 380.772,253.867 380.499,253.695 L380.335,253.68 L379.897,253.398 L204.686,130.273 C202.397,128.641 198.983,129.234 197.366,131.539 C195.694,133.922 196.28,137.203 198.647,138.883 L375.077,262.859 C395.226,278.023 401.061,297.008 401.726,299.359 M510.491,391.273 C490.866,397.25 460.311,395.664 438.78,371.601 C420.265,350.867 410.944,329.461 404.116,313.836 C401.944,308.82 400.077,304.523 398.21,300.977 L398.093,300.773 L398.054,300.57 C397.999,300.375 392.726,280.945 372.788,265.984 L196.429,142.039 C192.311,139.125 191.319,133.453 194.218,129.344 C197.022,125.351 202.929,124.305 206.913,127.102 L381.929,250.102 C382.312,250.281 382.866,250.633 383.944,251.32 C389.507,254.851 406.483,265.609 420.647,265.641 C442.03,265.68 486.436,270.594 504.585,277.914 C523.991,285.75 538.569,301.961 544.616,322.414 C549.944,340.414 547.757,359.398 538.905,371.992 C532.773,380.742 522.679,387.594 510.491,391.273" fill="#1A1919"/>
    <g clip-path="url(#Clip_1)">
      <path d="M541.41,272.432 L541.41,332.719 L434.49,332.719 L434.49,272.432 L541.41,272.432 z" fill="#EEA67C"/>
    </g>
    <path d="M471.388,328.628 L220.351,152.226 L224.21,146.758 L479.521,326.158 L471.388,328.628 z" fill="url(#Gradient_4)"/>
    <path d="M469.038,329.341 L379.406,266.356 C378.042,265.174 376.601,264.006 375.077,262.859 L218.046,152.514 C218.034,152.302 218.087,152.084 218.21,151.898 L223.171,144.851 C223.319,144.648 223.538,144.516 223.796,144.461 C223.856,144.449 223.919,144.443 223.983,144.443 C224.174,144.443 224.372,144.496 224.53,144.602 L481.87,325.445 L479.521,326.158 L224.21,146.758 L220.351,152.226 L471.388,328.628 L469.038,329.341 z" fill="url(#Gradient_5)"/>
    <path d="M379.406,266.356 L218.46,153.258 C218.203,153.082 218.064,152.803 218.046,152.514 L375.077,262.859 C376.601,264.006 378.042,265.174 379.406,266.356" fill="#1A1919"/>
    <path d="M171.749,57.758 C150.968,43.141 122.257,48.172 107.647,68.946 C93.054,89.734 98.038,118.43 118.858,133.055 C136.366,145.375 159.522,143.695 175.108,130.398 L210.132,155.023 C215.319,158.664 222.522,157.414 226.171,152.234 C229.819,147.023 228.554,139.836 223.366,136.195 L188.319,111.578 C195.546,92.406 189.288,70.086 171.749,57.758" fill="#F3B229"/>
    <path d="M174.991,127.953 L211.241,153.43 C213.679,155.141 216.71,155.633 219.554,154.781 C221.601,154.156 223.327,152.883 224.577,151.117 C226.054,149.031 226.632,146.477 226.171,143.969 C225.741,141.43 224.351,139.258 222.265,137.789 L185.991,112.281 L186.53,110.875 C193.616,92.078 187.085,70.875 170.647,59.336 C159.46,51.469 145.554,49.258 132.468,53.211 C122.976,56.086 114.952,61.922 109.241,70.063 C95.272,89.945 100.069,117.484 119.952,131.469 C131.093,139.281 144.991,141.508 158.054,137.547 C163.897,135.773 169.218,132.867 173.851,128.914 L174.991,127.953 z M220.671,158.477 L220.671,158.477 C216.671,159.68 212.429,158.992 209.03,156.602 L175.194,132.82 C170.429,136.625 165.069,139.461 159.171,141.242 C144.96,145.539 129.874,143.141 117.757,134.625 C96.101,119.43 90.897,89.469 106.069,67.836 C112.296,59.008 121.038,52.664 131.358,49.524 C145.569,45.219 160.702,47.625 172.843,56.18 C190.312,68.461 197.507,90.75 190.632,110.844 L224.476,134.633 C227.421,136.695 229.382,139.773 229.976,143.305 C230.593,146.836 229.804,150.414 227.741,153.328 C226.007,155.805 223.562,157.57 220.671,158.477" fill="#1A1919"/>
    <path d="M118.397,133.711 C118.397,133.711 84.507,236.273 92.866,236.891 C101.241,237.477 137.546,141.492 160.437,133.219 C160.437,133.219 137.038,115.32 118.397,133.711" fill="#EB8B2D"/>
    <path d="M120.077,134.758 C105.593,178.656 92.147,226.508 93.46,234.539 C96.944,231.609 105.101,215.609 112.343,201.383 C126.022,174.617 142.812,141.781 156.608,133.016 C151.819,130.172 141.28,125.164 130.647,128.383 C126.835,129.523 123.28,131.687 120.077,134.758 z M93.913,238.664 L93.913,238.664 C93.538,238.773 93.116,238.836 92.733,238.805 C91.843,238.727 91.038,238.258 90.507,237.477 C85.272,229.656 109.116,155.602 116.554,133.094 C116.671,132.789 116.819,132.547 117.038,132.32 C120.757,128.641 124.991,126.078 129.53,124.695 C145.78,119.758 160.968,131.187 161.608,131.68 C162.179,132.117 162.46,132.82 162.366,133.508 C162.226,134.203 161.772,134.781 161.101,135.039 C148.202,139.703 129.476,176.367 115.772,203.141 C104.015,226.219 98.147,237.383 93.913,238.664" fill="#1A1919"/>
    <path d="M163.702,84.789 C173.116,91.453 175.421,104.437 168.757,113.844 C162.14,123.25 149.147,125.508 139.694,118.891 C130.304,112.289 128.054,99.281 134.647,89.867 C141.28,80.445 154.272,78.164 163.702,84.789" fill="#FFFFFE"/>
    <path d="M151.741,83.492 C145.757,83.492 140.132,86.414 136.687,91.305 C130.89,99.586 132.882,111.055 141.132,116.852 C149.187,122.469 161.101,120.359 166.718,112.406 C169.554,108.406 170.647,103.555 169.796,98.719 C168.952,93.891 166.272,89.672 162.257,86.836 C159.163,84.656 155.515,83.492 151.741,83.492 z M151.694,125.18 C146.874,125.18 142.233,123.719 138.257,120.945 C127.757,113.562 125.21,98.977 132.601,88.43 C136.983,82.211 144.132,78.492 151.741,78.492 C156.554,78.492 161.194,79.969 165.132,82.75 C170.241,86.367 173.64,91.727 174.718,97.859 C175.804,104.008 174.405,110.203 170.804,115.289 C166.437,121.477 159.296,125.18 151.694,125.18" fill="#1A1919"/>
    <path d="M157.296,96.273 C162.077,99.672 163.272,106.352 159.874,111.211 C156.476,116.023 149.796,117.18 144.96,113.797 C140.147,110.437 138.976,103.719 142.374,98.891 C145.749,94.07 152.413,92.898 157.296,96.273" fill="#1A1919"/>
    <path d="M193.476,138.93 C193.476,138.93 179.851,137.937 177.944,142.602 C176.062,147.273 173.507,149 180.733,151.859 C187.937,154.742 186.562,157.305 193.358,161.414 C200.147,165.508 201.601,164.656 204.46,161.234 C207.304,157.82 207.46,146.937 207.46,146.937 L193.476,138.93" fill="#AB2430"/>
    <path d="M182.397,141.687 C180.96,142.125 179.991,142.719 179.726,143.336 C179.397,144.148 179.054,144.883 178.726,145.531 C178.304,146.461 177.741,147.641 177.866,147.961 C177.944,148.172 178.429,148.883 181.444,150.07 C185.827,151.82 187.397,153.539 189.054,155.367 C190.28,156.687 191.562,158.055 194.351,159.758 C197.616,161.734 199.53,162.477 200.577,162.156 C201.257,161.945 201.999,161.18 202.991,160.008 C204.577,158.07 205.351,152.078 205.515,148.039 L192.913,140.828 C191.366,140.758 186.038,140.586 182.397,141.687 z M201.687,165.844 C199.069,166.648 196.171,165.375 192.366,163.07 C189.069,161.078 187.577,159.43 186.218,157.945 C184.741,156.344 183.593,155.094 180.03,153.68 C176.608,152.305 174.952,151.07 174.272,149.383 C173.515,147.484 174.374,145.719 175.265,143.852 C175.569,143.258 175.858,142.617 176.171,141.867 C176.882,140.102 178.593,138.797 181.28,137.992 C186.226,136.477 193.312,136.969 193.601,137.016 L194.421,137.242 L209.413,145.852 L209.397,146.969 C209.397,148.164 209.116,158.633 205.96,162.469 C204.726,163.93 203.476,165.297 201.687,165.844" fill="#1A1919"/>
    <path d="M198.358,140.555 C201.929,143.055 203.093,147.547 200.96,150.586 C198.827,153.586 195.319,152.469 191.726,149.961 C188.171,147.445 185.905,144.516 188.046,141.492 C190.155,138.453 194.788,138.023 198.358,140.555" fill="#AB2430"/>
    <path d="M191.788,141.062 C190.882,141.32 190.116,141.883 189.616,142.602 C189.085,143.352 189.101,143.867 189.171,144.203 C189.288,144.891 189.921,146.32 192.851,148.367 C196.069,150.609 198.124,151.234 199.382,149.469 C200.085,148.461 200.28,147.195 199.929,145.844 C199.562,144.383 198.601,143.07 197.257,142.125 C195.546,140.922 193.515,140.531 191.788,141.062 z M199.374,154.07 C196.976,154.805 194.101,153.969 190.624,151.523 C187.491,149.32 185.772,147.148 185.358,144.883 C185.085,143.336 185.468,141.781 186.444,140.359 C189.101,136.586 195.187,135.961 199.476,138.953 C201.562,140.437 203.054,142.523 203.679,144.867 C204.304,147.336 203.897,149.742 202.546,151.687 C201.694,152.867 200.632,153.695 199.374,154.07" fill="#1A1919"/>
    <path d="M191.53,140.883 C191.53,140.883 188.335,127.914 190.851,124.32 C193.358,120.773 197.812,114.227 204.249,124.047 C210.991,134.312 222.702,136.555 220.569,142.078 C218.444,147.617 210.226,151.18 202.694,148.734 C194.499,146.023 191.53,140.883 191.53,140.883" fill="#AB2430"/>
    <path d="M193.335,140.117 C193.952,140.977 196.851,144.773 203.319,146.898 C209.304,148.875 216.999,145.961 218.757,141.391 C219.304,139.969 217.788,138.68 213.913,135.883 C210.366,133.344 205.983,130.195 202.632,125.102 C201.163,122.859 198.96,120.297 196.952,120.906 C195.265,121.422 193.616,123.758 192.522,125.32 C191.218,127.164 191.944,134.32 193.335,140.117 z M213.038,150.664 C209.491,151.742 205.585,151.695 202.101,150.57 C193.304,147.672 189.991,142.055 189.866,141.844 L189.726,141.602 L189.655,141.336 C189.085,139.023 186.405,127.305 189.288,123.219 C190.835,120.984 192.866,118.117 195.827,117.211 C199.272,116.156 202.655,118.117 205.866,122.984 C208.804,127.477 212.89,130.398 216.163,132.75 C220.21,135.672 224.038,138.445 222.366,142.781 C220.976,146.367 217.499,149.312 213.038,150.664" fill="#1A1919"/>
    <path d="M197.39,147.523 C196.476,147.797 195.491,147.359 195.085,146.469 C194.851,145.914 192.944,140.977 198.937,133.852 C199.64,133.062 200.858,132.937 201.663,133.633 C202.468,134.305 202.577,135.516 201.897,136.336 C197.468,141.602 198.593,144.82 198.647,144.961 C199.022,145.945 198.546,147.078 197.569,147.445 L197.39,147.523" fill="#1A1919"/>
    <path d="M191.062,150.922 L190.944,150.945 C190.515,151.062 186.585,152.008 184.632,152.094 C183.585,152.133 182.679,151.289 182.655,150.242 C182.585,149.156 183.413,148.266 184.491,148.227 C185.812,148.172 188.929,147.469 190.03,147.203 C191.062,146.945 192.108,147.57 192.366,148.617 C192.608,149.594 192.022,150.609 191.062,150.922" fill="#1A1919"/>
    <path d="M157.108,24.602 C161.851,27.977 149.069,54.367 128.538,83.609 C107.976,112.852 87.452,133.836 82.702,130.484 C77.937,127.133 90.726,100.719 111.28,71.492 C131.804,42.25 152.319,21.242 157.108,24.602" fill="#D8127D"/>
    <path d="M83.827,128.914 C83.858,128.898 84.108,128.945 84.687,128.766 C90.694,126.945 107.546,110.094 126.929,82.492 C150.038,49.617 158.007,28.68 155.976,26.18 C155.929,26.188 155.679,26.156 155.108,26.321 C149.108,28.141 132.257,44.985 112.843,72.602 C89.733,105.484 81.788,126.414 83.827,128.914 z M85.819,132.469 C84.108,132.961 82.71,132.836 81.593,132.07 C73.538,126.391 96.452,89.234 109.71,70.375 C127.733,44.703 145.937,25.086 153.991,22.633 C155.679,22.125 157.108,22.25 158.202,23.039 C166.288,28.719 143.366,65.844 130.085,84.727 C112.069,110.375 93.858,130.008 85.819,132.469" fill="#1A1919"/>
    <path d="M37.288,59.672 L96.874,101.57 C99.913,103.68 110.827,93.367 121.28,78.508 C131.694,63.657 137.71,49.891 134.655,47.774 L75.054,5.875 L37.288,59.672" fill="#D8127D"/>
    <path d="M97.944,99.898 C98.015,99.883 98.155,99.883 98.319,99.812 C101.788,98.773 110.444,90.539 119.687,77.399 C130.554,61.93 134.374,50.992 133.429,49.203 L75.538,8.571 L39.976,59.196 L97.921,99.914 L97.944,99.898 z M99.444,103.5 L99.444,103.5 C97.632,104.055 96.452,103.609 95.772,103.117 L34.585,60.133 L74.585,3.188 L135.788,46.188 C142.647,51.008 124.89,76.727 122.843,79.633 C115.382,90.242 105.265,101.742 99.444,103.5" fill="#1A1919"/>
    <path d="M74.687,5.617 C77.71,7.75 71.726,21.524 61.288,36.375 C50.835,51.235 39.945,61.524 36.898,59.391 C33.867,57.274 39.874,43.5 50.312,28.641 C60.733,13.797 71.663,3.492 74.687,5.617" fill="#DF5693"/>
    <path d="M38.085,57.742 C38.156,57.719 38.234,57.696 38.335,57.649 C41.796,56.61 50.468,48.383 59.726,35.25 C70.226,20.297 74.132,9.571 73.546,7.274 C73.491,7.289 73.382,7.321 73.241,7.36 C69.796,8.414 61.132,16.617 51.898,29.758 C41.351,44.727 37.46,55.453 38.054,57.75 L38.085,57.742 z M39.476,61.352 C37.656,61.914 36.476,61.461 35.788,60.985 C33.367,59.274 33.679,55.164 36.804,48.024 C39.374,42.102 43.601,34.821 48.726,27.539 C56.194,16.93 66.319,5.446 72.132,3.68 C73.937,3.141 75.124,3.563 75.804,4.031 C82.663,8.875 64.921,34.578 62.866,37.485 C55.413,48.094 45.273,59.586 39.476,61.352" fill="#1A1919"/>
    <path d="M422.89,276.148 C422.632,276.531 422.163,276.766 421.679,276.758 C407.608,276.469 383.64,261.883 382.632,261.242 L308.366,209.055 C307.733,208.602 307.554,207.711 308.015,207.055 C308.476,206.391 309.366,206.227 310.022,206.711 L384.218,258.836 C384.374,258.93 408.437,273.617 421.749,273.875 C422.538,273.891 423.179,274.555 423.155,275.336 C423.155,275.633 423.046,275.914 422.89,276.148" fill="#FFFFFE"/>
    <path d="M484.272,282.586 C483.929,283.102 483.241,283.336 482.616,283.117 C470.882,279.133 441.351,276.609 441.054,276.586 C440.265,276.508 439.679,275.82 439.741,275.008 C439.819,274.234 440.499,273.633 441.304,273.719 C442.507,273.82 471.476,276.297 483.546,280.398 C484.304,280.648 484.718,281.461 484.46,282.211 C484.413,282.352 484.351,282.477 484.272,282.586" fill="#FFFFFE"/>
    <path d="M322.187,205.641 C322.187,205.641 324.015,207.211 317.921,216.703 C311.851,226.195 308.976,224.469 308.976,224.469 L273.077,199.242 C273.077,199.242 275.437,200.906 282.054,191.5 C288.663,182.078 286.319,180.43 286.319,180.43 L322.187,205.641 z" fill="url(#Gradient_6)"/>
    <path d="M309.718,222.633 L309.843,222.617 C310.429,222.445 312.624,221.398 316.296,215.672 C319.944,210.016 320.46,207.594 320.515,206.805 L288.226,184.133 C287.608,186.156 286.226,188.891 283.601,192.602 C281.218,196.039 279.101,198.414 277.218,199.812 L309.718,222.633 z M310.976,226.305 C309.304,226.805 308.241,226.273 307.968,226.102 L271.976,200.82 L274.187,197.664 C273.819,197.414 273.585,197.43 273.585,197.43 C274.093,197.32 276.335,196.273 280.476,190.398 C285.272,183.555 284.765,181.523 284.765,181.523 C284.765,181.523 284.835,181.758 285.21,181.992 L287.413,178.844 L323.304,204.07 C325.491,205.953 324.179,210.523 319.554,217.742 C316.429,222.641 313.522,225.531 310.976,226.305" fill="#1A1919"/>
    <path d="M491.342,386.208 C469.439,386.208 444.921,373.796 426.054,342.391 L469.038,329.341 L514.322,361.163 C504.118,367.765 487.268,369.633 487.069,369.633 C484.976,369.852 483.429,371.766 483.647,373.875 C483.86,375.865 485.517,377.341 487.466,377.341 C487.598,377.341 487.732,377.334 487.866,377.32 C488.436,377.25 495.835,376.445 504.218,373.891 C509.988,372.137 516.232,369.572 521.014,365.865 L527.999,370.773 C528.153,370.88 528.343,370.928 528.528,370.928 C528.587,370.928 528.646,370.923 528.702,370.914 L528.819,370.898 C529.03,370.828 529.194,370.688 529.327,370.531 L534.273,363.461 C534.585,363.016 534.491,362.43 534.054,362.117 L528.098,357.932 C535.923,345.38 531.96,331.821 531.757,331.156 C531.247,329.5 529.72,328.431 528.06,328.431 C527.684,328.431 527.301,328.486 526.921,328.601 C524.898,329.211 523.726,331.383 524.366,333.414 C524.393,333.541 527.422,343.909 521.746,353.468 L481.87,325.445 L527.4,311.623 C530.018,314.39 532.458,317.47 534.743,320.923 C539.356,335.923 543.858,363.454 521.319,377.641 C512.689,383.074 502.343,386.208 491.342,386.208 z" fill="url(#Gradient_7)"/>
    <g clip-path="url(#Clip_2)">
      <path d="M535.412,309.343 L535.412,320.991 L526.748,320.991 L526.748,309.343 L535.412,309.343 z" fill="#5A739C"/>
    </g>
    <path d="M528.319,368.633 L522.556,364.583 C522.941,364.239 523.313,363.886 523.671,363.523 C524.95,362.226 526.061,360.892 527.026,359.538 L532.163,363.148 L528.319,368.633 z M516.006,359.981 L471.388,328.628 L479.521,326.158 L520.692,355.088 C519.964,356.111 519.126,357.118 518.163,358.094 C517.508,358.757 516.785,359.386 516.006,359.981 z" fill="url(#Gradient_8)"/>
    <path d="M528.528,370.928 C528.343,370.928 528.153,370.88 527.999,370.773 L521.014,365.865 C521.547,365.452 522.062,365.025 522.556,364.583 L528.319,368.633 L532.163,363.148 L527.026,359.538 C527.405,359.006 527.763,358.469 528.098,357.932 L534.054,362.117 C534.491,362.43 534.585,363.016 534.273,363.461 L529.327,370.531 C529.194,370.688 529.03,370.828 528.819,370.898 L528.702,370.914 C528.646,370.923 528.587,370.928 528.528,370.928 z M514.322,361.163 L469.038,329.341 L471.388,328.628 L516.006,359.981 C515.47,360.39 514.907,360.784 514.322,361.163 z M520.692,355.088 L479.521,326.158 L481.87,325.445 L521.746,353.468 C521.423,354.011 521.073,354.552 520.692,355.088 z" fill="url(#Gradient_9)"/>
    <path d="M487.466,377.341 C485.517,377.341 483.86,375.865 483.647,373.875 C483.429,371.766 484.976,369.852 487.069,369.633 C487.268,369.633 504.118,367.765 514.322,361.163 L521.014,365.865 C516.232,369.572 509.988,372.137 504.218,373.891 C495.835,376.445 488.436,377.25 487.866,377.32 C487.732,377.334 487.598,377.341 487.466,377.341 z M528.098,357.932 L521.746,353.468 C527.422,343.909 524.393,333.541 524.366,333.414 C523.726,331.383 524.898,329.211 526.921,328.601 C527.301,328.486 527.684,328.431 528.06,328.431 C529.72,328.431 531.247,329.5 531.757,331.156 C531.96,331.821 535.923,345.38 528.098,357.932 z" fill="url(#Gradient_10)"/>
    <path d="M522.556,364.583 L516.006,359.981 C516.785,359.386 517.508,358.757 518.163,358.094 C519.126,357.118 519.964,356.111 520.692,355.088 L527.026,359.538 C526.061,360.892 524.95,362.226 523.671,363.523 C523.313,363.886 522.941,364.239 522.556,364.583 z" fill="url(#Gradient_11)"/>
    <path d="M521.014,365.865 L514.322,361.163 C514.907,360.784 515.47,360.39 516.006,359.981 L522.556,364.583 C522.062,365.025 521.547,365.452 521.014,365.865 z M527.026,359.538 L520.692,355.088 C521.073,354.552 521.423,354.011 521.746,353.468 L528.098,357.932 C527.763,358.469 527.405,359.006 527.026,359.538 z" fill="url(#Gradient_12)"/>
    <path d="M349.038,498.148 L360.601,397.867 C360.601,397.867 333.616,335.281 341.327,308.695 C349.038,282.133 372.733,214.617 350.272,197.258 C327.843,179.898 289.421,189.422 289.249,251.258 C288.991,343.867 324.796,409.43 324.796,409.43 L324.929,507.797 L349.038,498.148" fill="#FFF7AA"/>
    <path d="M328.476,191.492 C310.522,191.492 291.288,207.18 291.171,251.258 C290.937,342.25 326.147,407.852 326.491,408.5 L326.749,408.93 L326.866,504.945 L347.241,496.781 L358.632,398.141 C355.96,391.852 331.921,334.164 339.46,308.148 C340.272,305.414 341.226,302.258 342.304,298.766 C351.351,268.969 368.179,213.539 349.093,198.773 C343.007,194.07 335.679,191.492 328.476,191.492 z M322.991,510.641 L322.866,409.906 C319.765,403.953 287.077,339.344 287.312,251.258 C287.444,204.281 309.562,187.633 328.476,187.633 C336.53,187.633 344.694,190.492 351.452,195.727 C372.647,212.125 355.96,267.07 345.968,299.891 C344.921,303.367 343.96,306.508 343.171,309.234 C335.733,334.859 362.108,396.461 362.382,397.078 L362.577,397.555 L362.53,398.07 L350.827,499.508 L322.991,510.641" fill="#1A1919"/>
    <path d="M310.444,443.875 L360.601,443.875 C360.601,443.875 352.89,488.242 360.601,511.383 C368.319,534.539 377.968,542.242 377.968,565.383 L377.968,575.039 L219.819,575.039 C219.819,575.039 212.077,528.727 233.319,522.945 C254.53,517.164 284.14,529.031 298.21,522.945 C324.929,511.422 310.444,443.875 310.444,443.875" fill="#D8127D"/>
    <path d="M221.476,573.102 L376.038,573.102 L376.038,565.383 C376.038,550.836 372.155,542.664 367.233,532.312 C364.569,526.656 361.53,520.281 358.788,511.992 C351.921,491.391 356.866,455.258 358.351,445.805 L312.804,445.805 C315.179,458.148 324.249,513.805 298.96,524.727 C295.944,526.031 292.077,526.664 287.187,526.664 C281.647,526.664 275.437,525.898 268.866,525.062 C261.749,524.18 254.397,523.25 247.366,523.25 C242.132,523.25 237.687,523.758 233.819,524.82 C216.616,529.5 220.39,565.062 221.476,573.102 z M377.968,576.961 L219.819,576.961 C218.866,576.961 218.054,576.289 217.913,575.359 C217.577,573.383 210.163,527.258 232.804,521.086 C237.007,519.93 241.772,519.391 247.366,519.391 C254.64,519.391 262.116,520.328 269.343,521.234 C275.812,522.039 281.897,522.805 287.187,522.805 C291.538,522.805 294.897,522.289 297.429,521.195 C322.413,510.398 308.718,444.93 308.585,444.273 C308.46,443.711 308.593,443.102 308.976,442.672 C309.327,442.203 309.866,441.945 310.444,441.945 L360.601,441.945 C361.194,441.945 361.726,442.195 362.085,442.633 C362.444,443.062 362.601,443.648 362.522,444.195 C362.429,444.648 354.96,488.344 362.429,510.766 C365.124,518.82 368.101,525.094 370.733,530.648 C375.655,541.008 379.882,549.977 379.882,565.383 L379.882,575.039 C379.882,576.102 379.03,576.961 377.968,576.961" fill="#1A1919"/>
    <path d="M340.194,220.961 C340.194,227.43 334.968,232.664 328.507,232.664 C322.054,232.664 316.804,227.43 316.804,220.961 C316.804,214.523 322.054,209.273 328.507,209.273 C334.968,209.273 340.194,214.523 340.194,220.961 z" fill="url(#Gradient_13)"/>
    <path d="M328.507,210.203 C323.124,210.203 318.749,214.594 318.749,219.961 C318.749,225.359 323.124,229.742 328.507,229.742 C333.897,229.742 338.28,225.359 338.28,219.961 C338.28,214.594 333.897,210.203 328.507,210.203 z M328.507,233.602 C321.007,233.602 314.882,227.477 314.882,219.961 C314.882,212.461 321.007,206.344 328.507,206.344 C336.038,206.344 342.14,212.461 342.14,219.961 C342.14,227.477 336.038,233.602 328.507,233.602" fill="#1A1919"/>
    <path d="M120.554,576.141 C99.554,576.141 54.054,566.492 47.851,565.148 C45.773,561.398 34.765,540.375 32.781,510.602 C31.132,485.82 30.382,450.976 29.898,427.906 C29.726,419.711 29.577,412.914 29.429,408.406 C28.882,391.711 8.804,358.914 6.015,354.422 L9.226,317.961 C35.804,307.703 87.819,306.586 109.132,306.586 C116.647,306.586 121.288,306.703 121.397,306.703 C121.405,306.703 125.937,306.586 133.319,306.586 C154.241,306.586 205.343,307.703 231.905,317.961 L235.124,354.422 C232.335,358.914 212.233,391.711 211.694,408.406 C211.554,412.914 211.405,419.727 211.226,427.93 C210.733,450.984 209.999,485.828 208.351,510.602 C206.366,540.336 195.351,561.398 193.257,565.148 C187.077,566.492 141.593,576.141 120.554,576.141 z M121.335,401.195 C94.132,401.195 33.953,406.227 33.953,406.227 C33.953,406.227 33.32,543.766 51.218,557.641 C51.218,557.641 96.249,571.609 121.335,571.609 C146.437,571.609 191.452,557.641 191.452,557.641 C209.351,543.766 208.718,406.227 208.718,406.227 C208.718,406.227 148.546,401.195 121.335,401.195 z" fill="url(#Gradient_14)"/>
    <path d="M47.851,565.148 C54.054,566.492 99.554,576.141 120.554,576.141 C141.593,576.141 187.077,566.492 193.257,565.148 C195.351,561.398 206.366,540.336 208.351,510.602 C209.999,485.828 210.733,450.984 211.226,427.93 C211.405,419.727 211.554,412.914 211.694,408.406 C212.233,391.711 232.335,358.914 235.124,354.422 L231.905,317.961 C205.343,307.703 154.241,306.586 133.319,306.586 C125.937,306.586 121.405,306.703 121.397,306.703 C121.288,306.703 116.647,306.586 109.132,306.586 C87.819,306.586 35.804,307.703 9.226,317.961 L6.015,354.422 C8.804,358.914 28.882,391.711 29.429,408.406 C29.577,412.914 29.726,419.711 29.898,427.906 C30.382,450.976 31.132,485.82 32.781,510.602 C34.765,540.375 45.773,561.398 47.851,565.148 M120.554,579.367 C97.741,579.367 48.546,568.617 46.452,568.164 C46.023,568.062 45.656,567.789 45.429,567.414 C44.866,566.492 31.788,544.344 29.562,510.805 C27.898,485.961 27.156,451.062 26.671,427.977 C26.492,419.805 26.351,413.008 26.202,408.508 C25.663,391.82 3.203,356.039 2.976,355.68 C2.781,355.375 2.702,355.039 2.734,354.672 L6.085,316.687 C6.132,316.078 6.531,315.539 7.101,315.328 C33.906,304.508 87.382,303.336 109.132,303.336 C116.64,303.336 121.288,303.476 121.382,303.476 C121.382,303.476 125.96,303.336 133.319,303.336 C154.663,303.336 207.218,304.508 234.03,315.328 C234.601,315.539 234.976,316.078 235.03,316.687 L238.39,354.672 C238.429,355.039 238.335,355.375 238.155,355.68 C237.921,356.039 215.46,391.82 214.929,408.508 C214.788,413.008 214.64,419.812 214.476,427.992 C213.976,451.078 213.233,485.977 211.585,510.805 C209.335,544.344 196.257,566.492 195.702,567.414 C195.476,567.789 195.101,568.062 194.655,568.164 C192.577,568.617 143.39,579.367 120.554,579.367" fill="#1A1919"/>
    <path d="M121.335,571.609 C96.249,571.609 51.218,557.641 51.218,557.641 C33.32,543.766 33.953,406.227 33.953,406.227 C33.953,406.227 94.132,401.195 121.335,401.195 C148.546,401.195 208.718,406.227 208.718,406.227 C208.718,406.227 209.351,543.766 191.452,557.641 C191.452,557.641 146.437,571.609 121.335,571.609 z" fill="url(#Gradient_15)"/>
    <path d="M126.147,368.422 C86.671,368.422 29.554,359.227 28.976,359.133 C27.21,358.844 26.007,357.18 26.288,355.414 C26.585,353.656 28.242,352.461 30.007,352.75 C30.577,352.828 87.194,361.961 126.147,361.961 C165.132,361.961 229.53,352.828 230.179,352.742 C231.944,352.477 233.585,353.711 233.835,355.484 C234.085,357.242 232.858,358.891 231.093,359.148 C230.437,359.234 165.593,368.422 126.147,368.422" fill="#FFFFFE"/>
    <path d="M173.64,560.875 C171.874,560.875 170.429,559.445 170.397,557.664 C170.39,556.453 169.304,435.492 170.421,411.109 C171.593,385.047 190.772,373.719 191.585,373.25 C193.132,372.359 195.108,372.898 196.007,374.437 C196.897,375.992 196.358,377.961 194.812,378.852 C194.101,379.273 177.882,389.008 176.874,411.398 C175.78,435.609 176.866,556.391 176.874,557.617 C176.897,559.391 175.444,560.852 173.671,560.875 L173.64,560.875" fill="#FFFFFE"/>
    <path d="M127.265,569.258 C125.476,569.258 124.03,567.797 124.03,566.023 L124.03,398.406 C124.03,393.93 129.522,384.445 131.202,381.656 C132.116,380.125 134.108,379.625 135.632,380.539 C137.163,381.461 137.663,383.453 136.749,384.984 C133.726,390.008 130.499,396.602 130.499,398.406 L130.499,566.023 C130.499,567.797 129.062,569.258 127.265,569.258" fill="#FFFFFE"/>
    <path d="M74.187,560.875 C72.397,560.875 70.96,559.422 70.96,557.641 L70.96,395.398 C68.835,385.984 61.358,378.414 61.28,378.336 C60.022,377.078 60.022,375.039 61.28,373.766 C62.538,372.508 64.601,372.508 65.858,373.766 C66.226,374.133 74.952,382.953 77.343,394.383 C77.397,394.602 77.421,394.82 77.421,395.055 L77.421,557.641 C77.421,559.422 75.968,560.875 74.187,560.875" fill="#FFFFFE"/>
    <path d="M127.265,334.031 C94.476,334.031 17.804,324.359 14.554,323.945 C12.781,323.727 11.531,322.094 11.757,320.336 C11.984,318.562 13.593,317.336 15.367,317.523 C16.163,317.633 94.882,327.562 127.265,327.562 C159.616,327.562 225.585,317.641 226.241,317.539 C227.999,317.281 229.655,318.484 229.921,320.25 C230.194,322.023 228.976,323.664 227.21,323.93 C224.483,324.352 160.101,334.031 127.265,334.031" fill="#FFFFFE"/>
  </g>
</svg>
